<?xml version="1.0" encoding="UTF-8"?>
<svg id="Layer_1" xmlns="http://www.w3.org/2000/svg" version="1.1" xmlns:xlink="http://www.w3.org/1999/xlink" viewBox="0 0 800 800">
  <!-- Generator: Adobe Illustrator 29.2.1, SVG Export Plug-In . SVG Version: 2.1.0 Build 116)  -->
  <g>
    <path d="M209.75,479.876l26.495-28.962c11.254-6.575,22.311-14.835,31.065-24.45,4.73-5.196,17.994-25.188,21.908-27.619,3.186-1.979,9.051-2.56,13.213-4.787,5.33-2.852,10.129-8.188,14.81-12.013,3.703,2.088,23.922,15.482,26.545,14.323l24.454-27.502c12.443-3.149,20.817-13.778,29.116-22.948l3.382,2.478c3.417,2.063,3.313-8.229,2.997-9.986-1.376-7.655-14.985-.318-19.984-1.543l1.995-3.984c-8.913,2.381-16.389,2.505-25.351-.005l-.638-2.494,33.984-18.021c.401-2.206-.882-1.489-2.379-1.385-6.802.473-13.714,3.47-21.127,2.899-1.488-.115-2.894.779-2.476-1.486,2.894-4.247,30.941-17.949,30.971-20.014.065-4.503-9.273,2.416-10.246,2.734-3.488,1.141-6.609.784-10.226.772-4.967-.607,9.235-9.197,10.185-9.814,3.882-2.525,9.778-3.577,11.308-8.182l-5.398,1.929-2.525-3.46c7.532-5.301,14.467-9.766,18.423-18.46,1.194.019,5.287,9.15,6.834,10.645,2.604,2.517,8.29,3.283,10.657,6.849-.187,3.61-4.935,1.887-6.732,1.755-1.435-.105-2.627-1.154-2.252,1.218.84,1.703,9.895,5.137,12.314,6.691,1.645,1.057,9.011,5.739,6.082,7.877-3.805,2.778-11.29-4.25-15.384.446.069,2.897,25.368,11.09,27.967,18.017.672,1.79-.451,1.342-1.466,1.482-5.252.724-10.328-1.136-15.521-.989,1.187,9.169,31.993,17.493,32.043,23.491.048,5.723-11.701-.242-14.527.45l-.524,3.056c-3.672-3.379-4.758.387-8.393.014-1.992-.205-3.896-2.238-6.143-2.128l-1.934,2.113-16.521-6.007v14.5c0,2.907,18.204,21.113,21.045,22.946,6.109,3.941,12.242-4.126,17.427-7.474,7.049-4.551,10.21-7.535,16.258-12.008,1.491-1.103,10.146-6.059,11.243-5.513,5.674,7.029,15.908,12.878,21.022,20.055,6.762,9.49,6.755,19.266,17.942,29.028,7.585,6.619,10.859,4.143,18.325,6.705,5.604,1.923,17.51,25.213,22.229,30.771,5.025,5.92,12.243,8.99,18.051,13.957l29.459,34.033H209.75ZM400.612,357.02l-3.716-1.05c-3.711,4.836-8.199,13.039-12.628,16.923-3.952,3.466-10.378,3.879-14.471,6.529-7.565,4.898-19.191,19.51-23.857,27.143-6.221,10.179-11.858,20.702-18.183,30.817l1.48.485c14.224-12.103,28.225-24.309,41.025-37.98,1.814-1.937,2.801-4.592,4.511-6.49,2.44-2.71,5.775-5.963,8.444-8.526,1.48-1.422,1.251-.789,2.506.493-3.641,6.482-4.089,14.837-6.473,21.506-2.718,7.604-11.884,12.493-16.913,19.092-5.199,6.823-13.693,20.389-17.987,28.013-.713,1.266-1.935,2.211-1.595,3.895.658.699,9.336-6.118,10.467-7.023,11.289-9.04,13.769-11.377,29.103-13.907,1.466-.242,2.75-.712,2.33,1.326-.824,3.989-5.72,9.23-6.816,13.213-.505,1.835,1.285,1.927,1.893,1.39.135-.119.255-1.685.992-2.469,9.64-10.252,19.609-15.813,27.221-28.829,1.682-2.877,7.447-12.196.36-10.644-1.877.411-19.174,10.6-22.469,12.536-.9.529-3.705,3.838-4.075,3.414,4.606-13.274,22.113-25.082,24.791-38.754,1.426-7.278-6.89-7.246-7.79-11.771l1.85-19.331ZM476.744,358.88c-1.644-.29-2.684.786-3.91,1.58-4.28,2.772-19.55,14.364-22.089,17.911-5.482,7.659-4.318,22.555-13.976,28.005,12.704,7.126,17.025,22.941,26.485,33.495-.017-8.919-4.454-17.775-4.494-26.995,3.303,1.651,23.555,22.415,25.985,19.995-4.38-10.053-6.225-20.268-15.978-26.496-.006-1.133,9.175-9.459,10.217-11.766,1.239-2.743,3.292-11.964-.868-12.64-3.25-.528-14.698,13.938-18.355,15.907,3.061-14.002,16.919-23.944,16.984-38.995ZM294.75,424.866c2.96-5.747,23.123-22.601,22.982-27.516-3.538-9.887-10.405,2.421-14.619,5.389-1.911,1.346-4.735,1.558-6.283,2.713-3.93,2.932-12.97,17.714-17.138,22.626-2.29,2.698-20.294,19.168-17.932,21.798,9.719-4.426,23.029-13.233,33.486-15.014,1.51-.257,1.748-.077,1.409,1.405-.907,3.969-4.429,8.194-2.41,12.605,2.443-3.586,9.194-6.429,11.385-9.615,3.448-5.014,3.778-16.216,7.127-21.931-1.65-6.036-7.846,1.761-11.097,3.961-1.918,1.298-4.653,3.105-6.911,3.579ZM513.135,418.501c-2.607-2.813-4.802-6.178-7.89-8.62-1.292.797.319,3.21.805,4.195,5.095,10.324,15.732,25.366,24.978,32.021,1.296.933,9.006,6.412,9.721,5.769-8.558-11.643-17.818-22.793-27.615-33.365Z"/>
    <path d="M424.75,498.876c2.787,9.262,4.139,20.037,7.549,28.998.485,1.273-.049,2.415,1.941,2.008l7.51-31.006h15v64h-11v-37l-3.51,8.99-6.5,28.015-3.375.043-11.616-41.048v41h-10v-64h14Z"/>
    <path d="M465.75,498.876l14.548.952c2.572,8.312,4.098,18.699,7.398,26.602.428,1.025.676,2.323,2.043,2.445l7.486-29.023,14.524-.976v64h-9v-42l-12.613,42.047-3.338-.09-10.049-37.958v38h-11v-64Z"/>
    <path d="M234.413,501.213c2.022,2.03,4.025,8.232,4.343,11.156.84,7.731.883,37.145-1.833,43.179-6.922,15.382-31.725,7.592-29.178-9.677l9.906.106,2.346,7.651c11.426,3.944,8.548-8.392,8.748-15.75-5.291,1.44-14.298,2.584-18.026-2.473-5.054-6.855-4.14-28.539,2.522-34.54,4.816-4.339,16.611-4.234,21.172.347ZM228.75,528.876v-18.5c0-3.608-7.713-5.697-9.743-.743-3.067,7.485-2.962,27.4,9.743,19.243Z"/>
    <path d="M256.75,524.876c10.251-2.849,19.847-.529,21.067,11.433,1.125,11.032.822,25.639-12.835,27.313-11.783,1.444-17.338-6.306-18.268-17.21-.733-8.599-.993-27.736.01-36.063,2.039-16.933,26.287-17.196,30.337-1.292,2.49,9.776-2.42,5.08-9.311,5.82.56-1.876-.976-7.532-2.712-8.01-1.98-.545-8.288.276-8.288,2.508v15.5ZM266.494,553.606c3.194-3.016,3.709-19.077-.744-21.243-2.741-1.333-7.909.213-8.807,3.207-.546,1.819-.546,13.796,0,15.614.989,3.295,6.978,4.851,9.551,2.423Z"/>
    <path d="M379.75,498.876v51.5c0,.222,2.486,3.461,2.701,3.516,3.198.821,9.299-.935,9.299-4.516v-50.5h9v56.5c0,.249-2.55,3.367-3.099,3.901-5.534,5.39-16.049,5.92-22.413,1.611-1.339-.906-5.488-6.412-5.488-7.512v-54.5h10Z"/>
    <path d="M361.755,515.879l-9.906-.106c-.089-12.943-14.834-11.552-11.885,1.394,2.014,8.841,19.757,12.38,21.695,26.294,3.889,27.933-35.966,26.888-31.913.409h10.009c-.587,6.328,1.272,12.524,8.724,10.29,2.916-1.332,3.545-4.837,3.333-7.772-.844-11.666-20.176-14.943-21.969-28.099-3.693-27.105,32.845-27.54,31.913-2.411Z"/>
    <path d="M609.755,515.88l-10.002-.006c.58-15.799-17.843-9.061-9.851,4.35,4.202,7.05,16.113,8.878,19.068,18.931,3.671,12.488-1.126,25.338-15.67,24.751-12.231-.494-15.805-9.041-15.555-20.034l9.864.14c1.578.991-.491,10.793,6.64,10.793,5.266,0,5.966-5.374,5.524-9.452-1.212-11.159-16.836-13.295-20.257-22.746-10.445-28.854,31.224-35.147,30.238-6.728Z"/>
    <path d="M572.75,498.876l-.937,9.563-11.063.437v54h-9v-53.5c-1.575-2.291-10.799.712-12.005-.495l.005-10.005h33Z"/>
    <rect x="521.75" y="498.876" width="11" height="64"/>
    <path d="M299.75,498.876v64h-10v-47.5l-6.002-1.499c-1.185-8.048.766-6.033,4.92-9.586,3.756-3.212,5.105-6.668,11.082-5.415Z"/>
    <rect x="307.75" y="526.876" width="16" height="9"/>
    <path d="M400.612,357.02l-1.85,19.331c.9,4.525,9.215,4.493,7.79,11.771-2.678,13.672-20.186,25.479-24.791,38.754.371.423,3.175-2.886,4.075-3.414,3.295-1.936,20.592-12.125,22.469-12.536,7.087-1.552,1.322,7.767-.36,10.644-7.612,13.016-17.58,18.577-27.221,28.829-.738.784-.858,2.35-.992,2.469-.607.538-2.397.445-1.893-1.39,1.096-3.983,5.992-9.224,6.816-13.213.421-2.037-.864-1.568-2.33-1.326-15.334,2.53-17.814,4.867-29.103,13.907-1.131.905-9.808,7.722-10.467,7.023-.34-1.684.882-2.629,1.595-3.895,4.294-7.624,12.788-21.19,17.987-28.013,5.029-6.599,14.194-11.488,16.913-19.092,2.384-6.669,2.831-15.023,6.473-21.506-1.254-1.282-1.026-1.915-2.506-.493-2.668,2.564-6.004,5.817-8.444,8.526-1.709,1.898-2.697,4.553-4.511,6.49-12.8,13.671-26.801,25.876-41.025,37.98l-1.48-.485c6.325-10.115,11.962-20.638,18.183-30.817,4.666-7.633,16.292-22.245,23.857-27.143,4.093-2.65,10.519-3.063,14.471-6.529,4.429-3.884,8.916-12.087,12.628-16.923l3.716,1.05Z" fill="#fff"/>
    <path d="M476.744,358.88c-.066,15.051-13.923,24.993-16.984,38.995,3.657-1.969,15.106-16.435,18.355-15.907,4.161.676,2.108,9.897.868,12.64-1.042,2.307-10.223,10.633-10.217,11.766,9.753,6.228,11.598,16.443,15.978,26.496-2.429,2.42-22.682-18.344-25.985-19.995.04,9.221,4.477,18.077,4.494,26.995-9.46-10.555-13.781-26.369-26.485-33.495,9.658-5.449,8.495-20.345,13.976-28.005,2.539-3.547,17.809-15.139,22.089-17.911,1.226-.794,2.266-1.87,3.91-1.58Z" fill="#fff"/>
    <path d="M294.75,424.866c2.257-.474,4.993-2.281,6.911-3.579,3.25-2.2,9.447-9.998,11.097-3.961-3.349,5.715-3.679,16.917-7.127,21.931-2.191,3.186-8.942,6.028-11.385,9.615-2.019-4.41,1.502-8.635,2.41-12.605.339-1.482.101-1.662-1.409-1.405-10.457,1.782-23.767,10.588-33.486,15.014-2.363-2.63,15.642-19.1,17.932-21.798,4.168-4.912,13.208-19.694,17.138-22.626,1.548-1.155,4.372-1.367,6.283-2.713,4.214-2.968,11.081-15.276,14.619-5.389.142,4.915-20.021,21.769-22.982,27.516Z" fill="#fff"/>
    <path d="M513.135,418.501c9.797,10.572,19.057,21.722,27.615,33.365-.715.643-8.425-4.836-9.721-5.769-9.246-6.656-19.884-21.698-24.978-32.021-.486-.985-2.097-3.398-.805-4.195,3.088,2.443,5.283,5.807,7.89,8.62Z" fill="#fff"/>
    <path d="M228.75,528.876c-12.705,8.157-12.81-11.758-9.743-19.243,2.03-4.954,9.743-2.865,9.743.743v18.5Z" fill="#fff"/>
    <path d="M266.494,553.606c-2.572,2.428-8.561.872-9.551-2.423-.546-1.817-.545-13.795,0-15.614.898-2.994,6.066-4.54,8.807-3.207,4.453,2.166,3.937,18.228.744,21.243Z" fill="#fff"/>
  </g>
  <path d="M107,195.714"/>
</svg>